#!OML:ASF H:\Terrain\Patient Classification 1\Terrain2\Thursday\justin.ASF
:FULLY-SPECIFIED
:DEGREES
2553
root 8.76489 17.5522 -10.5725 -0.848302 -0.0579748 -10.3145
lowerback 5.55833 1.18969 10.6472
upperback 1.84382 2.22751 4.72108
thorax -0.981979 1.11705 -1.18166
lowerneck -13.2145 -1.34669 -8.114
upperneck 40.1185 0.0924718 1.3594
head 16.7789 -0.97496 2.09218
rclavicle -2.09221e-014 -6.83819e-014
rhumerus -28.1296 -5.55399 -77.984
rradius 40.2094
rwrist -17.459
rhand -20.9428 10.9332
rfingers 7.12502
rthumb 5.42954 -18.9773
lclavicle -2.09221e-014 -6.83819e-014
lhumerus -37.1671 1.42173 86.2004
lradius 41.5268
lwrist 6.15381
lhand -18.0039 23.2229
lfingers 7.12502
lthumb 8.26657 -306.959
rfemur 4.83751 -3.3123 36.2847
rtibia 13.437
rfoot -13.1735 6.24611
rtoes 11.5457
lfemur -29.1384 0.239128 -6.90645
ltibia 50.6845
lfoot -10.2722 -5.77791
ltoes -7.5041
2554
root 8.76911 17.5445 -10.4613 -0.751422 -0.195136 -10.3161
lowerback 5.4853 1.22686 10.5951
upperback 1.86197 2.26145 4.74727
thorax -0.921942 1.13669 -1.1254
lowerneck -13.2444 -1.27361 -8.03499
upperneck 40.0598 0.236427 1.22568
head 16.7453 -0.920158 2.04218
rclavicle -1.42628e-014 -4.37326e-014
rhumerus -27.8919 -5.10921 -78.0447
rradius 40.3078
rwrist -17.5733
rhand -20.8191 10.802
rfingers 7.12502
rthumb 5.54905 -19.1054
lclavicle -1.42628e-014 -4.37326e-014
lhumerus -37.1151 1.72533 86.0746
lradius 41.4341
lwrist 5.92074
lhand -17.4442 24.8631
lfingers 7.12502
lthumb 8.8067 -305.341
rfemur 5.57092 -2.80686 36.347
rtibia 12.6003
rfoot -12.9464 6.12813
rtoes 12.2597
lfemur -29.5869 0.289154 -6.98614
ltibia 49.0665
lfoot -10.5023 -5.27377
ltoes -8.63044
2555
root 8.77163 17.5445 -10.3496 -0.687049 -0.391914 -10.0215
lowerback 5.45001 1.31873 10.3318
upperback 1.89773 2.35849 4.61559
thorax -0.861164 1.18822 -1.12213
lowerneck -13.3032 -1.27853 -8.12964
upperneck 40.0457 0.224192 1.3296
head 16.753 -0.925049 2.10362
rclavicle -1.82882e-014 -7.15625e-015
rhumerus -27.6252 -4.94928 -78.1642
rradius 40.2102
rwrist -17.5962
rhand -20.8055 10.9738
rfingers 7.12502
rthumb 5.56217 -18.9332
lclavicle -1.82882e-014 -7.15625e-015
lhumerus -37.0451 1.84535 85.8866
lradius 41.3353
lwrist 5.92042
lhand -17.0513 25.2431
lfingers 7.12502
lthumb 9.18582 -304.977
rfemur 6.46584 -2.45464 36.0605
rtibia 11.5549
rfoot -12.7301 6.05219
rtoes 12.7553
lfemur -29.8546 0.22235 -7.34705
ltibia 47.3619
lfoot -10.7668 -4.7927
ltoes -8.31293
2556
root 8.77578 17.5444 -10.2381 -0.580721 -0.544933 -10.0432
lowerback 5.43118 1.37963 10.3852
upperback 1.87797 2.44022 4.57188
thorax -0.859179 1.22845 -1.2005
lowerneck -13.2015 -1.28848 -8.20615
upperneck 39.889 0.207642 1.35719
head 16.6438 -0.934401 2.12313
rclavicle 7.45443e-016 -1.03368e-014
rhumerus -27.3104 -5.12655 -78.2227
rradius 39.8454
rwrist -17.287
rhand -20.8816 11.1997
rfingers 7.12502
rthumb 5.48865 -18.7092
lclavicle 7.45443e-016 -1.03368e-014
lhumerus -37.1297 1.98997 85.6661
lradius 41.2163
lwrist 6.01255
lhand -17.6991 23.4392
lfingers 7.12502
lthumb 8.56072 -306.754
rfemur 7.32403 -2.3486 36.0502
rtibia 10.476
rfoot -12.3851 6.13116
rtoes 13.6785
lfemur -30.1433 0.221707 -7.36504
ltibia 45.5458
lfoot -10.714 -4.50153
ltoes -7.59526
2557
root 8.78018 17.5362 -10.1245 -0.444217 -0.633756 -10.4576
lowerback 5.40929 1.42671 10.7858
upperback 1.82282 2.52646 4.6581
thorax -0.881645 1.26899 -1.33331
lowerneck -13.2031 -1.29322 -8.20263
upperneck 39.8526 0.220853 1.30622
head 16.6245 -0.934037 2.10135
rclavicle -4.18442e-014 -1.51076e-014
rhumerus -27.0015 -5.49245 -78.179
rradius 39.3602
rwrist -16.8008
rhand -20.7719 11.5144
rfingers 7.12502
rthumb 5.59455 -18.3918
lclavicle -4.18442e-014 -1.51076e-014
lhumerus -37.1837 2.10937 85.4929
lradius 40.9661
lwrist 5.80576
lhand -18.1887 22.1252
lfingers 7.12502
lthumb 8.08823 -308.05
rfemur 8.0346 -2.15561 36.5036
rtibia 9.55529
rfoot -12.0467 6.01661
rtoes 14.0222
lfemur -30.4521 0.398125 -6.9847
ltibia 43.6241
lfoot -10.3579 -4.3786
ltoes -7.3498
2558
root 8.77827 17.5347 -10.0102 -0.250935 -0.758955 -10.2786
lowerback 5.37435 1.53663 10.5183
upperback 1.73467 2.66084 4.56949
thorax -0.949717 1.33035 -1.2874
lowerneck -13.3846 -1.30628 -8.23201
upperneck 40.0339 0.167915 1.47599
head 16.7703 -0.943105 2.17818
rclavicle -1.79403e-014 -2.38542e-015
rhumerus -27.0051 -5.54767 -78.2124
rradius 39.3794
rwrist -16.716
rhand -20.6323 11.3547
rfingers 7.12502
rthumb 5.72932 -18.5479
lclavicle -1.79403e-014 -2.38542e-015
lhumerus -37.2877 2.00129 85.3948
lradius 40.7776
lwrist 5.61568
lhand -18.2134 22.4984
lfingers 7.12502
lthumb 8.06442 -307.676
rfemur 8.69199 -1.90716 36.3828
rtibia 8.73246
rfoot -11.9574 5.7421
rtoes 13.0446
lfemur -30.7257 0.479639 -7.24183
ltibia 41.5999
lfoot -10.052 -4.13829
ltoes -5.74336
2559
root 8.77739 17.5329 -9.89711 -0.118174 -0.958992 -9.69802
lowerback 5.35638 1.62407 9.86186
upperback 1.74068 2.73743 4.40364
thorax -0.950286 1.36853 -1.10526
lowerneck -13.5981 -1.27812 -8.40305
upperneck 40.0993 0.20679 1.68577
head 16.8565 -0.927283 2.31264
rclavicle -1.43125e-014 -7.15625e-014
rhumerus -27.0276 -5.11321 -78.3214
rradius 39.7093
rwrist -17.129
rhand -20.6598 11.0235
rfingers 7.12502
rthumb 5.70286 -18.8798
lclavicle -1.43125e-014 -7.15625e-014
lhumerus -37.3533 1.97848 85.3179
lradius 40.6797
lwrist 5.56468
lhand -18.3799 22.4243
lfingers 7.12502
lthumb 7.90368 -307.743
rfemur 9.43295 -1.59801 35.8152
rtibia 7.97277
rfoot -11.8622 5.51228
rtoes 12.3936
lfemur -30.8339 0.505802 -7.93976
ltibia 39.5148
lfoot -10.1014 -3.84506
ltoes -6.13845
2560
root 8.78314 17.5222 -9.78355 -0.0186292 -1.13886 -9.7601
lowerback 5.30233 1.6415 9.91147
upperback 1.80365 2.74958 4.43492
thorax -0.852047 1.37984 -1.09694
lowerneck -13.6798 -1.24489 -8.47815
upperneck 39.9272 0.342113 1.54945
head 16.7768 -0.896991 2.28474
rclavicle -6.5102e-015 5.56597e-015
rhumerus -26.7131 -4.91301 -78.3918
rradius 39.5322
rwrist -17.1837
rhand -20.6775 11.0581
rfingers 7.12502
rthumb 5.6857 -18.8456
lclavicle -6.5102e-015 5.56597e-015
lhumerus -37.3122 2.17786 85.2041
lradius 40.4332
lwrist 5.41064
lhand -18.4781 22.1423
lfingers 7.12502
lthumb 7.80891 -308.022
rfemur 10.1466 -1.32648 35.9229
rtibia 7.28639
rfoot -11.6796 5.26168
rtoes 10.9325
lfemur -30.8931 0.682791 -7.95484
ltibia 37.4328
lfoot -10.3186 -3.73452
ltoes -9.01385
2561
root 8.78802 17.5141 -9.67183 0.202986 -1.32837 -10.1518
lowerback 5.23557 1.72129 10.288
upperback 1.70707 2.87448 4.49303
thorax -0.88771 1.43795 -1.24714
lowerneck -13.4574 -1.2491 -8.37271
upperneck 39.7608 0.331474 1.40445
head 16.632 -0.898965 2.19415
rclavicle -4.82053e-015 3.89618e-014
rhumerus -26.586 -5.31924 -78.4386
rradius 39.2146
rwrist -16.7062
rhand -20.7397 11.2071
rfingers 7.12502
rthumb 5.62563 -18.6983
lclavicle -4.82053e-015 3.89618e-014
lhumerus -37.4374 2.16072 85.056
lradius 40.0881
lwrist 5.31762
lhand -18.4935 22.5617
lfingers 7.12502
lthumb 7.79406 -307.602
rfemur 10.9368 -1.02017 36.4043
rtibia 6.17214
rfoot -11.3546 4.90213
rtoes 8.5228
lfemur -31.1514 0.839639 -7.55369
ltibia 35.4251
lfoot -10.3253 -3.74979
ltoes -9.61931
2562
root 8.79101 17.5103 -9.55761 0.454568 -1.39357 -10.274
lowerback 5.1202 1.82255 10.4513
upperback 1.57798 3.0116 4.42065
thorax -0.932241 1.50086 -1.41568
lowerneck -13.2768 -1.27468 -8.37411
upperneck 39.7409 0.21167 1.56008
head 16.5811 -0.925251 2.24199
rclavicle 9.41245e-014 9.22361e-014
rhumerus -26.6376 -5.8569 -78.4834
rradius 39.0282
rwrist -16.3445
rhand -21.014 11.4409
rfingers 7.12502
rthumb 5.36082 -18.4713
lclavicle 9.41245e-014 9.22361e-014
lhumerus -37.6298 1.95165 84.8942
lradius 39.8242
lwrist 5.34722
lhand -18.2617 22.8625
lfingers 7.12502
lthumb 8.01779 -307.31
rfemur 12.2234 -0.816983 36.572
rtibia 3.96039
rfoot -10.5285 4.70613
rtoes 7.85344
lfemur -31.4932 0.921295 -7.45536
ltibia 33.5752
lfoot -10.3492 -3.97299
ltoes -9.61475
2563
root 8.79524 17.5063 -9.43255 0.537284 -1.27918 -10.366
lowerback 4.90161 1.83158 10.5738
upperback 1.62055 2.99289 4.39243
thorax -0.758655 1.50034 -1.50044
lowerneck -13.2973 -1.2971 -8.58829
upperneck 39.7392 0.121097 1.87767
head 16.5897 -0.95094 2.40671
rclavicle -2.32578e-014 -4.09496e-014
rhumerus -26.4222 -6.13155 -78.5126
rradius 38.6815
rwrist -16.2157
rhand -21.0889 11.4555
rfingers 7.12502
rthumb 5.28852 -18.4585
lclavicle -2.32578e-014 -4.09496e-014
lhumerus -37.6168 1.93235 84.7426
lradius 39.4084
lwrist 5.39078
lhand -17.9087 22.0988
lfingers 7.12502
lthumb 8.35848 -308.087
rfemur 14.5552 -0.834993 36.7023
rtibia 3.97569e-014
rfoot -8.8614 4.67965
rtoes 7.86368
lfemur -31.642 0.818706 -7.37379
ltibia 31.8172
lfoot -10.6268 -4.37679
ltoes -8.85016
2564
root 8.80074 17.4903 -9.30674 0.566555 -1.28942 -10.5895
lowerback 4.69344 1.80405 10.7003
upperback 1.74592 2.91974 4.48173
thorax -0.515858 1.47785 -1.46169
lowerneck -13.4563 -1.25659 -8.6203
upperneck 39.7645 0.213157 1.87274
head 16.637 -0.920224 2.42766
rclavicle -5.13858e-014 -6.75868e-014
rhumerus -26.1302 -5.98039 -78.5805
rradius 38.4097
rwrist -16.2264
rhand -20.774 11.4659
rfingers 7.12502
rthumb 5.5926 -18.4403
lclavicle -5.13858e-014 -6.75868e-014
lhumerus -37.5178 2.33187 84.5455
lradius 38.9122
lwrist 5.35662
lhand -17.7057 21.2936
lfingers 7.12502
lthumb 8.55435 -308.9
rfemur 14.9594 -0.747214 36.9751
rtibia 1.59028e-014
rfoot -9.35266 4.38244
rtoes 6.8855
lfemur -31.675 0.558971 -7.03975
ltibia 30.058
lfoot -10.9269 -4.63867
ltoes -7.35356
2565
root 8.80586 17.4694 -9.18687 0.728947 -1.48962 -10.7569
lowerback 4.56626 1.79446 10.8034
upperback 1.81999 2.88477 4.52184
thorax -0.366928 1.46892 -1.4676
lowerneck -13.7011 -1.15405 -8.39505
upperneck 39.7115 0.453979 1.54593
head 16.6547 -0.832298 2.2831
rclavicle -2.23633e-015 2.38542e-015
rhumerus -25.9486 -5.62904 -78.7771
rradius 38.321
rwrist -16.2782
rhand -20.5989 11.6425
rfingers 7.12502
rthumb 5.76161 -18.2592
lclavicle -2.23633e-015 2.38542e-015
lhumerus -37.468 2.82025 84.277
lradius 38.5648
lwrist 5.34011
lhand -17.7692 21.0769
lfingers 7.12502
lthumb 8.49309 -309.114
rfemur 15.2195 -0.437837 37.1858
rtibia 0
rfoot -9.83566 4.21273
rtoes 6.26559
lfemur -31.776 0.474668 -6.77787
ltibia 28.293
lfoot -11.116 -4.69698
ltoes -8.06611
2566
root 8.80827 17.4645 -9.06435 0.877309 -1.68813 -10.6442
lowerback 4.53062 1.84808 10.7197
upperback 1.80579 2.9472 4.42423
thorax -0.354589 1.50003 -1.52439
lowerneck -13.7256 -1.08818 -8.35651
upperneck 39.5736 0.55585 1.5106
head 16.5787 -0.785095 2.2752
rclavicle -2.04251e-014 -2.46493e-014
rhumerus -25.9603 -5.57994 -78.939
rradius 38.2423
rwrist -16.3186
rhand -20.6407 11.7825
rfingers 7.12502
rthumb 5.72126 -18.1202
lclavicle -2.04251e-014 -2.46493e-014
lhumerus -37.584 2.9012 84.05
lradius 38.2463
lwrist 5.40368
lhand -17.7416 20.486
lfingers 7.12502
lthumb 8.51973 -309.706
rfemur 15.4953 -0.128604 37.0795
rtibia -3.18055e-015
rfoot -9.98786 4.18802
rtoes 7.23588
lfemur -31.872 0.419432 -6.84842
ltibia 26.6592
lfoot -11.3343 -4.69004
ltoes -9.16787
2567
root 8.81092 17.4658 -8.93732 0.976587 -1.81237 -10.2012
lowerback 4.46613 1.95477 10.2764
upperback 1.76799 3.06335 4.23737
thorax -0.360412 1.55577 -1.47951
lowerneck -13.6723 -1.09845 -8.44227
upperneck 39.5924 0.493629 1.68728
head 16.5773 -0.799161 2.35875
rclavicle -1.97791e-014 1.39149e-014
rhumerus -26.0706 -5.73017 -79.0069
rradius 38.1818
rwrist -16.379
rhand -20.6891 11.7203
rfingers 7.12502
rthumb 5.67457 -18.1837
lclavicle -1.97791e-014 1.39149e-014
lhumerus -37.7309 2.86192 83.8741
lradius 37.8445
lwrist 5.2443
lhand -17.5909 20.27
lfingers 7.12502
lthumb 8.6651 -309.928
rfemur 15.8242 0.102162 36.5934
rtibia 4.45278e-014
rfoot -10.0444 4.15188
rtoes 8.11107
lfemur -31.9518 0.255505 -7.3016
ltibia 25.2654
lfoot -11.6573 -4.65862
ltoes -9.7511
